<?xml version="1.0" encoding="utf-8"?>
<!-- Generator: Adobe Illustrator 22.1.0, SVG Export Plug-In . SVG Version: 6.00 Build 0)  -->
<svg version="1.1" id="Layer_1" xmlns="http://www.w3.org/2000/svg" xmlns:xlink="http://www.w3.org/1999/xlink" x="0px" y="0px"
	 viewBox="0 0 500 500" style="enable-background:new 0 0 500 500;" xml:space="preserve">
<style type="text/css">
	.st0{fill:#FFFFFF;}
	.st1{fill:#E0E0E0;}
	.st2{fill:#F27721;}
	.st3{fill:#D55E27;}
	.st4{fill:none;stroke:#000000;stroke-width:20;stroke-linecap:round;stroke-linejoin:round;}
	.st5{fill:none;stroke:#2F2F31;stroke-width:15.13;stroke-linecap:round;stroke-linejoin:round;}
</style>
<title>construction</title>
<polygon class="st0" points="292.8,10.4 250,10.4 207.2,10.4 101.8,431.4 250,431.4 398.2,431.4 "/>
<polygon class="st1" points="292.8,10.4 250,10.4 242.4,10.4 347.8,431.4 398.2,431.4 "/>
<polygon class="st2" points="313.9,94.6 292.8,10.4 250,10.4 207.2,10.4 186.1,94.6 "/>
<polygon class="st2" points="144,263 356,263 335,178.8 165,178.8 "/>
<polygon class="st2" points="122.9,347.2 101.8,431.4 250,431.4 398.2,431.4 377.1,347.2 "/>
<polygon class="st3" points="292.8,10.4 250,10.4 242.4,10.4 263.5,94.6 313.9,94.6 "/>
<polygon class="st3" points="335,178.8 284.6,178.8 305.6,263 356,263 "/>
<polygon class="st3" points="377.1,347.2 326.7,347.2 347.8,431.4 398.2,431.4 "/>
<rect x="52.4" y="431.4" class="st2" width="395.2" height="58.2"/>
<rect x="397.2" y="431.4" class="st3" width="50.4" height="58.2"/>
<rect x="52.4" y="431.4" class="st4" width="395.2" height="58.2"/>
<polygon class="st5" points="292.8,10.4 250,10.4 207.2,10.4 101.8,431.4 250,431.4 398.2,431.4 "/>
<polygon class="st4" points="292.8,10.4 250,10.4 207.2,10.4 101.8,431.4 250,431.4 398.2,431.4 "/>
<polygon class="st4" points="313.9,94.6 292.8,10.4 250,10.4 207.2,10.4 186.1,94.6 "/>
<polygon class="st4" points="144,263 356,263 335,178.8 165,178.8 "/>
<polygon class="st4" points="122.9,347.2 101.8,431.4 250,431.4 398.2,431.4 377.1,347.2 "/>
</svg>
